# xmcd CD database file
#
# Track frame offsets:
#	150
#	18460
#	37576
#	53774
#	70669
#	90773
#	108973
#	127355
#	144605
#	162214
#	179634
#
# Disc length: 2681 seconds
#
# Revision: 2
# Processed by: cddbd v1.5.1PL0 Copyright (c) Steve Scherf et al.
# Submitted via: CDex 1.51
#
DISCID=8b0a770b
DTITLE=O-Zone - DiscO-Zone
DYEAR=1900
DGENRE=Pop
TTITLE0=Fiesta de la noche
TTITLE1=De ce plang chitarele
TTITLE2=Dragostea din tei
TTITLE3=Printre nori
TTITLE4=Oriunde ai fi
TTITLE5=Numai Tu
TTITLE6=Dar Unde Esti
TTITLE7=Despre Tine
TTITLE8=Sarbatoarea noptilor de vara
TTITLE9=Nu mas las de limba noastra
TTITLE10=Crede-ma
EXTD=
EXTT0=
EXTT1=
EXTT2=
EXTT3=
EXTT4=
EXTT5=
EXTT6=
EXTT7=
EXTT8=
EXTT9=
EXTT10=
PLAYORDER=
